<?xml version="1.0" standalone="no"?>
<!DOCTYPE svg PUBLIC "-//W3C//DTD SVG 1.1//EN" "http://www.w3.org/Graphics/SVG/1.1/DTD/svg11.dtd" >
<svg xmlns="http://www.w3.org/2000/svg">
<metadata>Generated by IcoMoon</metadata>
<defs>
<font id="icomoon" horiz-adv-x="1024">
<font-face units-per-em="1024" ascent="960" descent="-64" />
<missing-glyph horiz-adv-x="1024" />
<glyph unicode="&#x20;" horiz-adv-x="512" d="" />
<glyph unicode="&#xe900;" glyph-name="shopping" d="M704 641.195v58.197c0 108.459-85.611 196.608-191.531 196.608s-191.531-88.149-191.531-196.608v-58.197h42.667v58.197c0 85.163 66.773 153.941 148.864 153.941 82.069 0 148.864-68.779 148.864-153.941v-58.197h42.667zM146.24 596.011c1.24 12.595 11.649 22.39 24.4 22.656h682.693c12.309 0 23.552-10.475 24.427-22.656l36.587-512.384c0.811-11.136-7.104-19.627-18.283-19.627h-768.128c-0.154-0.005-0.334-0.007-0.515-0.007-9.862 0-17.856 7.994-17.856 17.856 0 0.626 0.032 1.245 0.095 1.854l-0.006-0.076 36.587 512.384zM103.68 599.040l-36.587-512.384c-0.122-1.438-0.191-3.112-0.191-4.802 0-33.426 27.097-60.523 60.523-60.523 0.18 0 0.359 0.001 0.538 0.002h768.101c0.2-0.002 0.436-0.004 0.673-0.004 33.343 0 60.373 27.030 60.373 60.373 0 1.743-0.074 3.47-0.219 5.176l0.015-0.223-36.587 512.384c-2.475 34.496-32.277 62.293-66.987 62.293h-682.667c-34.837 0-64.512-27.627-66.987-62.293zM618.667 490.667c0-0.002 0-0.004 0-0.007 0-23.564 19.103-42.667 42.667-42.667s42.667 19.103 42.667 42.667c0 0.002 0 0.005 0 0.007v0c0 0.002 0 0.004 0 0.007 0 23.564-19.103 42.667-42.667 42.667s-42.667-19.103-42.667-42.667c0-0.002 0-0.005 0-0.007v0zM320 490.667c0-0.002 0-0.004 0-0.007 0-23.564 19.103-42.667 42.667-42.667s42.667 19.103 42.667 42.667c0 0.002 0 0.005 0 0.007v0c0 0.002 0 0.004 0 0.007 0 23.564-19.103 42.667-42.667 42.667s-42.667-19.103-42.667-42.667c0-0.002 0-0.005 0-0.007v0z" />
<glyph unicode="&#xe901;" glyph-name="shopping-o" d="M915.57 600.747c-3.263 36.965-33.823 65.807-71.229 66.332l-0.052 0.001h-69.973c-21.22 188.644-130.617 265.842-262.428 265.842-131.755 0-241.152-77.198-262.258-265.842h-69.973c-37.406-0.661-67.889-29.428-71.261-66.047l-0.021-0.286-51.314-598.357c-2.617-36.636 29.696-66.389 72.078-66.389h765.611c41.927 0 74.752 29.696 72.135 66.332l-51.371 598.471zM511.943 866.475c96.484 0 177.038-47.73 195.527-199.396h-390.997c18.489 151.666 98.987 199.396 195.527 199.396zM312.491 467.684c-36.729 0-66.503 29.774-66.503 66.503s29.774 66.503 66.503 66.503v0c36.729 0 66.503-29.774 66.503-66.503s-29.774-66.503-66.503-66.503v0zM711.452 467.684c-36.729 0-66.503 29.774-66.503 66.503s29.774 66.503 66.503 66.503v0c36.729 0 66.503-29.774 66.503-66.503s-29.774-66.503-66.503-66.503v0z" />
<glyph unicode="&#xe902;" glyph-name="store" d="M832 85.525c0.001-0.063 0.001-0.138 0.001-0.213 0-11.782-9.551-21.333-21.333-21.333-0.015 0-0.031 0-0.046 0h-597.246c-11.819 0.060-21.376 9.655-21.376 21.482 0 0.030 0 0.060 0 0.090v-0.005 213.12h-42.667v-213.12c0-0.019 0-0.042 0-0.064 0-35.391 28.66-64.089 64.037-64.149h597.254c0.013 0 0.028 0 0.043 0 35.346 0 64 28.654 64 64 0 0.075 0 0.15 0 0.225v-0.012 213.12h-42.667v-213.12zM824 388.629c-11.575-4.207-24.935-6.64-38.864-6.64-41.325 0-77.648 21.414-98.478 53.751l-0.279 0.463-40.555 63.872-33.685-67.712c-18.543-37.072-56.223-62.081-99.743-62.081-0.124 0-0.248 0-0.372 0.001h0.019c-0.090 0-0.196 0-0.302 0-43.547 0-81.253 25.005-99.545 61.439l-0.292 0.641-33.707 67.712-40.512-63.872c-21.039-32.841-57.342-54.296-98.657-54.296-13.999 0-27.424 2.463-39.862 6.98l0.813-0.258c-57.429 26.091-86.464 93.867-64.875 153.685l40.491 112.277 37.419 147.029c0.939 3.797 7.68 9.045 11.605 9.045h576.405c4.011 0 10.645-5.141 11.605-9.045l38.315-153.259 37.931-105.749c21.589-59.861-7.467-127.723-64.875-153.984zM929.003 557.099l-36.672 101.611-38.315 153.259c-5.696 22.869-29.44 41.365-52.992 41.365h-576.427c-23.552 0-47.296-18.624-52.992-41.387l-34.859-139.413-1.28-3.435-40.512-112.299c-29.333-81.365 10.667-173.184 89.408-207.723 70.976-25.984 149.76 1.877 189.355 64.277 25.882-51.198 78.072-85.695 138.322-85.717h0.003c0.008 0 0.018 0 0.028 0 60.245 0 112.431 34.507 137.871 84.834l0.405 0.883c28.847-44.701 78.403-73.876 134.773-73.876 19.577 0 38.331 3.519 55.666 9.958l-1.106-0.36c78.72 34.731 118.741 126.507 89.323 208zM746.645 597.333h-469.291c-11.782 0-21.333-9.551-21.333-21.333s9.551-21.333 21.333-21.333v0h469.291c11.782 0 21.333 9.551 21.333 21.333s-9.551 21.333-21.333 21.333v0z" />
<glyph unicode="&#xe903;" glyph-name="classify" d="M377.344 852.992h-179.712c-49.664 0-90.112-40.448-90.112-90.112v-179.712c0-49.664 40.448-90.112 90.112-90.112h179.712c49.664 0 90.112 40.448 90.112 90.112v179.712c-0.512 49.664-41.472 90.112-90.112 90.112zM421.376 583.168c0-24.576-19.968-45.056-45.056-45.056h-179.712c-24.576 0-45.056 19.968-45.056 45.056v179.712c0 24.576 19.968 45.056 45.056 45.056h179.712c24.576 0 45.056-19.968 45.056-45.056v-179.712zM377.344 402.944h-179.712c-49.664 0-90.112-40.448-90.112-90.112v-179.712c0-49.664 40.448-90.112 90.112-90.112h179.712c49.664 0 90.112 40.448 90.112 90.112v179.712c-0.512 49.664-41.472 90.112-90.112 90.112zM421.376 133.12c0-24.576-19.968-45.056-45.056-45.056h-179.712c-24.576 0-45.056 19.968-45.056 45.056v179.712c0 24.576 19.968 45.056 45.056 45.056h179.712c24.576 0 45.056-19.968 45.056-45.056v-179.712zM826.368 402.944h-179.712c-49.664 0-90.112-40.448-90.112-90.112v-179.712c0-49.664 40.448-90.112 90.112-90.112h224.768c12.288 0 22.528 10.24 22.528 22.528s-10.24 22.528-22.528 22.528h-224.768c-24.576 0-45.056 19.968-45.056 45.056v179.712c0 24.576 19.968 45.056 45.056 45.056h179.712c24.576 0 45.056-19.968 45.056-45.056v-112.64c0-12.288 10.24-22.528 22.528-22.528s22.528 10.24 22.528 22.528v112.64c-0.512 49.664-40.448 90.112-90.112 90.112zM826.368 852.992h-179.712c-49.664 0-90.112-40.448-90.112-90.112v-179.712c0-49.664 40.448-90.112 90.112-90.112h179.712c49.664 0 90.112 40.448 90.112 90.112v179.712c-0.512 49.664-40.448 90.112-90.112 90.112zM871.424 583.168c0-24.576-19.968-45.056-45.056-45.056h-179.712c-24.576 0-45.056 19.968-45.056 45.056v179.712c0 24.576 19.968 45.056 45.056 45.056h179.712c24.576 0 45.056-19.968 45.056-45.056v-179.712z" />
<glyph unicode="&#xe904;" glyph-name="thank" d="M490.667 213.888c-190.827 10.581-342.336 169.109-342.336 363.093 0 70.229 19.84 135.808 54.229 191.381 43.392-3.627 99.179-12.245 148.715-32.277 10.155-4.48 29.824-13.675 39.147-19.264 2.603 10.795 9.387 31.936 12.693 41.92 22.848 61.397 60.203 106.517 108.885 137.173 51.413-30.464 84.8-76.437 108.011-136.747 3.136-9.024 11.307-32.725 14.080-42.347 7.893 6.165 28.352 16.939 38.059 21.76 44.949 19.243 102.272 27.136 146.987 30.293 34.223-54.337 54.529-120.427 54.529-191.26 0-0.215 0-0.43-0.001-0.646v0.033c0-193.344-150.443-351.424-340.331-362.987v-214.016c0-11.782-9.551-21.333-21.333-21.333s-21.333 9.551-21.333 21.333v0 213.888zM385.92 33.813c-47.083 103.189-134.763 157.653-236.693 158.187-11.736 0.061-21.227 9.589-21.227 21.333 0 11.782 9.551 21.334 21.334 21.334 0.038 0 0.075 0 0.112 0h-0.006c118.272-0.597 221.184-64.555 275.307-183.147 1.215-2.599 1.923-5.643 1.923-8.853 0-11.784-9.553-21.337-21.337-21.337-8.574 0-15.967 5.057-19.358 12.352l-0.055 0.132zM599.253 51.52c54.123 118.613 157.035 182.549 275.307 183.147 0.032 0 0.069 0 0.107 0 11.782 0 21.334-9.551 21.334-21.334 0-11.745-9.491-21.273-21.221-21.333h-0.006c-101.931-0.512-189.611-54.997-236.693-158.187-3.446-7.426-10.839-12.483-19.413-12.483-11.784 0-21.337 9.553-21.337 21.337 0 3.21 0.709 6.254 1.978 8.985l-0.055-0.132zM660.309 683.179c-7.158-5.621-16.298-9.015-26.23-9.015-19.374 0-35.732 12.913-40.937 30.601l-0.076 0.302c-22.059 77.077-42.24 106.389-81.003 138.389-38.912-32-65.856-77.077-80.149-136.597-4.653-18.904-21.459-32.704-41.487-32.704-8.092 0-15.658 2.253-22.105 6.165l0.19-0.107c-42.325 25.344-75.371 37.397-142.464 43.008-22.092-42.358-35.051-92.507-35.051-145.683 0-0.188 0-0.377 0-0.565v0.029c0-177.323 143.296-321.003 320-321.003s320 143.68 320 321.003c0 51.84-12.224 101.781-35.243 146.645-71.787-5.056-105.173-16.875-135.445-40.469z" />
<glyph unicode="&#xe905;" glyph-name="thank2" d="M490.667 213.888c-190.827 10.581-342.336 169.109-342.336 363.093 0 70.229 19.84 135.808 54.229 191.381 55.339-4.629 130.859-17.387 187.861-51.541 19.989 83.243 62.421 141.845 121.579 179.093 62.827-37.248 98.773-97.643 122.091-179.093 45.611 35.541 126.229 47.915 185.045 52.053 34.223-54.337 54.529-120.427 54.529-191.26 0-0.215 0-0.43-0.001-0.646v0.033c0-193.344-150.443-351.424-340.331-362.987v-214.016c0-11.782-9.551-21.333-21.333-21.333s-21.333 9.551-21.333 21.333v0 213.888zM385.92 33.813c-47.083 103.189-134.763 157.653-236.693 158.187-11.736 0.061-21.227 9.589-21.227 21.333 0 11.782 9.551 21.334 21.334 21.334 0.038 0 0.075 0 0.112 0h-0.006c118.272-0.597 221.184-64.555 275.307-183.147 1.215-2.599 1.923-5.643 1.923-8.853 0-11.784-9.553-21.337-21.337-21.337-8.574 0-15.967 5.057-19.358 12.352l-0.055 0.132zM599.253 51.52c54.123 118.613 157.035 182.549 275.307 183.147 0.032 0 0.069 0 0.107 0 11.782 0 21.334-9.551 21.334-21.334 0-11.745-9.491-21.273-21.221-21.333h-0.006c-101.931-0.512-189.611-54.997-236.693-158.187-3.446-7.426-10.839-12.483-19.413-12.483-11.784 0-21.337 9.553-21.337 21.337 0 3.21 0.709 6.254 1.978 8.985l-0.055-0.132z" />
<glyph unicode="&#xe906;" glyph-name="close" d="M512-64c-282.752 0-512 229.248-512 512s229.248 512 512 512 512-229.248 512-512-229.248-512-512-512zM512 508.331l-211.371 211.456c-7.687 7.635-18.279 12.354-29.973 12.354-11.8 0-22.478-4.805-30.184-12.565l-0.002-0.002c-7.793-7.694-12.62-18.376-12.62-30.186 0-11.704 4.741-22.301 12.407-29.974v0l211.413-211.413-211.456-211.371c-7.635-7.687-12.354-18.279-12.354-29.973 0-11.8 4.805-22.478 12.565-30.184l0.002-0.002c7.694-7.793 18.376-12.62 30.186-12.62 11.704 0 22.301 4.741 29.974 12.407v0l211.413 211.413 211.371-211.413c7.687-7.635 18.279-12.354 29.973-12.354 11.8 0 22.478 4.805 30.184 12.565l0.002 0.002c7.793 7.694 12.62 18.376 12.62 30.186 0 11.704-4.741 22.301-12.407 29.974v0l-211.413 211.371 211.413 211.371c7.635 7.687 12.354 18.279 12.354 29.973 0 11.8-4.805 22.478-12.565 30.184l-0.002 0.002c-7.694 7.793-18.376 12.62-30.186 12.62-11.704 0-22.301-4.741-29.974-12.407v0l-211.371-211.413z" />
<glyph unicode="&#xe907;" glyph-name="special" d="M753.92 832h1.664c-0.491 0-0.853-0.021-1.216 0.128 0.384-0.149 0.725-0.128 1.216-0.128h-505.002l-142.080-237.653 344.576-448.128-133.355 429.781h-197.12l-14.080 18.347 14.549 24.32h183.403l-62.677 201.984 6.784 11.349h34.368l59.755-192.576 127.189 192.576h79.765l123.371-186.795 57.963 186.795h20.907l16.192-24.405-58.624-188.928h183.851l19.563-29.525-10.197-13.141h-206.443l-137.941-444.523 354.602 457.664-161.003 242.859zM215.509 856.512c5.973 10.027 20.395 18.155 32.085 18.155h507.947c11.733 0 26.539-7.979 33.024-17.771l166.997-251.925c6.485-9.813 6.016-25.173-1.365-34.709l-416.043-537.003c-14.421-18.603-37.824-18.475-52.203 0.235l-415.808 540.757c-7.253 9.429-8.256 25.237-2.283 35.221l147.669 247.040zM361.045 586.752l147.904-476.651 149.696 482.432-146.859 222.421-150.72-228.203z" />
<glyph unicode="&#xe908;" glyph-name="light" d="M512 149.333c164.949 0 298.667 133.717 298.667 298.667s-133.717 298.667-298.667 298.667-298.667-133.717-298.667-298.667 133.717-298.667 298.667-298.667zM512 106.667c-188.523 0-341.333 152.811-341.333 341.333s152.811 341.333 341.333 341.333 341.333-152.811 341.333-341.333-152.811-341.333-341.333-341.333zM64 426.667c-11.782 0-21.333 9.551-21.333 21.333s9.551 21.333 21.333 21.333v0h42.667c11.782 0 21.333-9.551 21.333-21.333s-9.551-21.333-21.333-21.333v0h-42.667zM490.667 896c0 11.782 9.551 21.333 21.333 21.333s21.333-9.551 21.333-21.333v0-42.667c0-11.782-9.551-21.333-21.333-21.333s-21.333 9.551-21.333 21.333v0 42.667zM490.667 42.667c0 11.782 9.551 21.333 21.333 21.333s21.333-9.551 21.333-21.333v0-42.667c0-11.782-9.551-21.333-21.333-21.333s-21.333 9.551-21.333 21.333v0 42.667zM917.333 426.667c-11.782 0-21.333 9.551-21.333 21.333s9.551 21.333 21.333 21.333v0h42.667c11.782 0 21.333-9.551 21.333-21.333s-9.551-21.333-21.333-21.333v0h-42.667zM180.139 749.696c-3.705 3.832-5.989 9.060-5.989 14.821 0 11.782 9.551 21.333 21.333 21.333 5.761 0 10.988-2.283 14.827-5.994l30.159-30.159c4.018-3.885 6.513-9.323 6.513-15.345 0-11.782-9.551-21.333-21.333-21.333-6.021 0-11.46 2.495-15.339 6.507l-30.171 30.171zM813.696 779.861c3.832 3.705 9.060 5.989 14.821 5.989 11.782 0 21.333-9.551 21.333-21.333 0-5.761-2.283-10.988-5.994-14.827l-30.159-30.159c-3.885-4.018-9.323-6.513-15.345-6.513-11.782 0-21.333 9.551-21.333 21.333 0 6.021 2.495 11.46 6.507 15.339l30.171 30.171zM210.304 176.469c3.885 4.018 9.323 6.513 15.345 6.513 11.782 0 21.333-9.551 21.333-21.333 0-6.021-2.495-11.46-6.507-15.339l-30.171-30.171c-3.885-4.018-9.323-6.513-15.345-6.513-11.782 0-21.333 9.551-21.333 21.333 0 6.021 2.495 11.46 6.507 15.339l30.171 30.171zM783.531 146.304c-4.018 3.885-6.513 9.323-6.513 15.345 0 11.782 9.551 21.333 21.333 21.333 6.021 0 11.46-2.495 15.339-6.507l30.171-30.171c3.705-3.832 5.989-9.060 5.989-14.821 0-11.782-9.551-21.333-21.333-21.333-5.761 0-10.988 2.283-14.827 5.994l-30.159 30.159z" />
<glyph unicode="&#xe909;" glyph-name="lingxing" d="M505.165 960l505.165-505.165-505.165-505.165-505.165 505.165z" />
<glyph unicode="&#xe90a;" glyph-name="message" d="M350.841 21.262c-5.838 0-11.312 2.311-15.447 6.446-8.392 8.514-8.392 22.258 0.122 30.651l103.264 101.804c0.243 0.122 0.365 0.365 0.487 0.487 0.365 0.365 0.73 0.73 1.216 1.095 0.122 0.122 0.243 0.243 0.365 0.243l0.73 0.608c0.243 0.122 0.365 0.243 0.608 0.365s0.365 0.243 0.608 0.365l0.73 0.487c0.122 0.122 0.365 0.243 0.487 0.243 0.243 0.122 0.365 0.243 0.608 0.365l0.73 0.365c0.122 0.122 0.365 0.122 0.487 0.243 0.243 0.122 0.365 0.122 0.608 0.243l0.73 0.243c0.243 0.122 0.487 0.122 0.608 0.243 0.243 0 0.365 0.122 0.608 0.122l0.851 0.243c0.243 0 0.365 0.122 0.608 0.122s0.487 0.122 0.73 0.122l0.973 0.122c0.122 0 0.243 0 0.487 0.122 0.487 0 0.851 0 1.338 0.122h431.42c37.705 0 68.356 30.651 68.356 68.356v536.752c0 37.705-30.651 68.356-68.356 68.356h-745.59c-37.705 0-68.356-30.651-68.356-68.356v-536.752c0-37.705 30.651-68.356 68.356-68.356h104.48c11.92 0 21.65-9.73 21.65-21.65s-9.73-21.65-21.65-21.65h-104.48c-61.545 0-111.778 50.111-111.778 111.778v536.508c0 61.545 50.111 111.778 111.778 111.778h745.59c61.545 0 111.778-50.111 111.778-111.778v-536.752c0-61.545-50.111-111.778-111.778-111.778h-421.69l-97.060-95.601c-4.135-4.135-9.487-6.325-15.204-6.325zM745.529 472.387c-20.191 0-36.732 16.42-36.732 36.732 0 20.191 16.42 36.732 36.732 36.732 20.191 0 36.732-16.42 36.732-36.732s-16.542-36.732-36.732-36.732zM511.392 472.387c-20.191 0-36.732 16.42-36.732 36.732 0 20.191 16.42 36.732 36.732 36.732 20.191 0 36.732-16.42 36.732-36.732s-16.42-36.732-36.732-36.732zM280.417 472.387c-20.191 0-36.732 16.42-36.732 36.732 0 20.191 16.42 36.732 36.732 36.732 20.191 0 36.732-16.42 36.732-36.732-0.122-20.312-16.542-36.732-36.732-36.732z" />
<glyph unicode="&#xe90b;" glyph-name="girl" d="M797.813 136.601h-78.237c-28.911-80.012-105.5-137.2-195.403-137.2s-166.618 57.188-195.529 137.073v0.127h-78.237s-38.802-5.199-38.802-64.542v-116.278h624.882v116.278c0.127 59.47-38.675 64.542-38.675 64.542zM443.273 234.62v43.24l-66.444 44.761c-33.983 33.983-56.3 79.505-60.231 130.353l-0.761-0.127c-12.807 0-24.092 6.467-30.686 16.358-20.415-155.206-73.419-160.278-73.419-160.278s83.436-74.433 231.288-74.433h0.254zM732.383 452.973l-0.761 0.127c-6.34-78.998-56.807-145.569-126.676-175.114v-43.24h0.38c147.852 0 231.288 74.433 231.288 74.433s-53.003 5.072-73.545 160.151c-6.721-9.891-18.006-16.358-30.686-16.358zM315.837 591.188v54.779s147.978-32.208 208.336 102.076c60.358-134.284 208.21-102.076 208.21-102.076v-54.779c12.68 0 23.966-6.467 30.686-16.231-1.648 27.516 0 87.113 0 120.462 0 5.072-0.507 10.271-0.761 15.343-1.141 20.288-2.536 40.577-5.833 60.738-2.79 17.118-7.228 34.11-13.568 50.341-5.326 13.695-12.046 26.882-19.908 39.309-6.974 11.032-14.709 21.556-23.458 31.32-8.242 9.003-17.118 17.245-27.009 24.473-9.257 6.721-19.147 12.427-29.418 17.626-9.003 4.565-18.26 8.369-27.77 11.919-8.115 3.043-16.484 5.579-24.98 7.608-13.821 3.17-28.023 4.565-42.098 5.453-8.242 0.507-16.484 0.507-24.6 0.38-12.553-0.254-25.107-0.38-37.66-1.522-20.035-1.902-39.816-7.608-58.71-13.821-10.271-3.424-20.288-7.608-29.418-13.187-9.383-5.706-18.26-12.3-26.882-19.020-10.017-7.735-19.654-15.977-28.023-25.487-8.876-10.271-16.104-21.81-22.444-33.729-7.228-13.568-13.568-27.77-18.767-42.225-6.087-16.865-10.017-34.363-12.3-52.116-2.663-20.796-4.311-42.225-4.311-63.148 0-33.222 1.775-92.946 0-120.462 6.594 9.383 17.752 15.977 30.686 15.977z" />
<glyph unicode="&#xe90c;" glyph-name="flag" d="M509.571 935.101l-486.879-833.856 44.715-38.343 485.584 846.875-43.42 25.324zM1028.511 422.039s-116.657 46.837-158.056 88.235c-87.667 87.667-59.797 199.438-147.553 287.193-41.485 41.485-158.216 88.424-158.216 88.424l-190.202-438.238s116.163-46.343 156.921-87.101c87.609-87.609 60.889-200.558 148.964-288.633 41.354-41.326 157.953-88.105 157.953-88.105l190.187 438.224z" />
<glyph unicode="&#xe90d;" glyph-name="flash" d="M613.611 903.339c14.571 18.453 21.696 15.083 15.829-8l-74.048-290.88 243.413-73.173c11.179-3.349 14.549-13.653 7.488-23.040l-387.52-516.139c-14.187-18.901-20.907-15.787-14.933 7.147l78.379 301.568-281.195 49.429c-11.605 2.048-15.189 11.072-7.744 20.523l420.331 532.565z" />
<glyph unicode="&#xe90e;" glyph-name="config" d="M872.555 653.696c-22.613-8.128-45.696-9.941-69.163-4.373-53.617 12.632-92.913 60.068-92.913 116.682 0 14.886 2.717 29.138 7.682 42.286l-0.273-0.824c1.749 4.843 0.853 6.955-3.605 8.96-17.92 8.107-35.541 16.917-53.675 24.533-11.925 4.992-24.533 8.384-36.501 12.373-23.147-47.659-59.456-74.88-112.064-74.88-52.821 0-89.259 27.307-111.979 74.539-36.353-10.080-68.083-23.586-97.509-40.631l1.978 1.057c17.216-49.493 10.923-94.635-26.539-131.925-37.376-37.205-82.496-43.712-131.776-26.283-15.96-27.438-29.457-59.16-38.853-92.599l-0.699-2.91c46.933-22.656 74.197-58.667 74.517-110.997 0.32-53.163-26.987-89.771-74.539-112.768 10.082-36.349 23.61-68.080 40.69-97.494l-1.052 1.963c47.808 16.789 91.669 11.371 128.64-23.253 39.957-37.44 47.275-83.627 29.653-134.933 27.459-16.032 59.2-29.51 92.685-38.793l2.846-0.673c23.040 47.36 59.349 74.475 111.979 74.453 52.885-0.064 89.216-27.541 111.893-74.539 36.338 10.097 68.053 23.616 97.462 40.672l-1.974-1.056c-17.387 49.493-10.816 94.4 26.24 131.627 37.291 37.419 82.432 43.776 132.053 26.539 16.012 27.448 29.501 59.178 38.827 92.643l0.682 2.867c-47.787 23.211-74.987 59.947-74.517 113.067 0.448 52.053 27.563 87.957 74.56 110.656-9.879 35.428-22.847 66.3-39.105 95.066l1.089-2.096c-2.048 3.712-4.309 1.92-6.763 1.067zM958.507 570.901c0.954-3.364 1.502-7.228 1.502-11.22 0-16.816-9.728-31.36-23.864-38.311l-0.251-0.111c-34.603-16.725-50.176-39.147-50.453-72.619-0.299-34.283 15.253-57.195 50.496-74.304 14.342-7.078 24.033-21.599 24.033-38.383 0-3.968-0.542-7.809-1.555-11.453l0.071 0.3c-11.067-40.123-25.976-75.161-44.825-107.628l1.155 2.156c-7.487-12.957-21.275-21.535-37.066-21.535-5.009 0-9.817 0.863-14.283 2.449l0.298-0.092c-36.651 12.736-63.851 7.68-87.808-16.363-23.915-24.021-28.949-51.093-16.213-87.381 1.528-4.212 2.412-9.074 2.412-14.142 0-15.77-8.556-29.542-21.279-36.927l-0.204-0.109c-30.267-17.645-65.256-32.555-102.146-42.923l-3.198-0.768c-3.4-0.975-7.306-1.535-11.342-1.535-16.821 0-31.368 9.734-38.317 23.876l-0.111 0.251c-16.725 34.688-39.509 50.368-73.493 50.389-33.92 0.021-56.597-15.509-73.579-50.432-7.084-14.324-21.596-24.001-38.367-24.001-3.896 0-7.669 0.522-11.255 1.5l0.299-0.070c-40.158 10.981-75.247 25.859-107.744 44.71l2.144-1.148c-13.016 7.473-21.642 21.292-21.642 37.127 0 4.963 0.847 9.728 2.405 14.159l-0.092-0.299c13.035 37.973 7.381 65.728-18.475 89.941-23.595 22.101-50.091 26.517-85.333 14.144-4.21-1.526-9.069-2.409-14.134-2.409-15.761 0-29.526 8.546-36.914 21.256l-0.109 0.204c-17.684 30.3-32.61 65.327-42.97 102.263l-0.764 3.188c-0.968 3.389-1.525 7.282-1.525 11.304 0 16.8 9.71 31.333 23.824 38.291l0.25 0.111c35.072 16.939 50.667 39.808 50.453 74.069-0.213 33.643-15.787 56.149-50.389 72.853-14.402 7.057-24.143 21.609-24.143 38.436 0 3.972 0.543 7.816 1.558 11.464l-0.071-0.3c11.105 40.089 25.965 75.080 44.713 107.544l-1.172-2.2c7.466 13.042 21.3 21.689 37.153 21.689 5.104 0 9.999-0.896 14.536-2.54l-0.297 0.094c36.096-12.779 63.317-7.723 87.467 16.299 24 23.893 29.035 51.072 16.32 87.68-1.494 4.167-2.357 8.975-2.357 13.984 0 15.791 8.579 29.579 21.33 36.957l0.205 0.11c30.279 17.639 65.283 32.542 102.187 42.902l3.199 0.767c3.376 0.96 7.253 1.512 11.259 1.512 16.837 0 31.396-9.752 38.337-23.917l0.111-0.252c16.725-34.731 39.509-50.389 73.536-50.368 33.899 0 56.576 15.616 73.664 50.837 7.077 14.344 21.599 24.037 38.385 24.037 4.829 0 9.47-0.802 13.798-2.281l-0.3 0.089c2.517-0.832 4.992-1.621 9.28-2.965l7.531-2.347c8.96-2.88 15.787-5.291 22.699-8.192 10.155-4.245 18.091-7.872 35.029-15.829 10.069-4.736 14.4-6.741 19.733-9.152 25.024-11.307 35.349-36.821 26.155-62.336-16-44.352 9.344-91.221 55.253-102.144 14.805-3.52 29.419-2.539 44.864 3.029 1.224 0.566 2.712 1.118 4.245 1.563l0.235 0.058c5.269 1.621 10.88 2.453 17.323 1.941 16.853-1.344 29.525-11.093 36.736-24.171 16.687-29.363 30.95-63.353 41.028-99.097l0.785-3.26zM522.667 640c-111.924-0.008-202.653-90.742-202.653-202.667 0-111.93 90.737-202.667 202.667-202.667s202.667 90.737 202.667 202.667c0 43.3-13.579 83.428-36.711 116.359l0.431-0.647c-3.918 5.425-10.225 8.915-17.346 8.915-11.782 0-21.333-9.551-21.333-21.333 0-4.466 1.372-8.612 3.719-12.038l-0.047 0.073c17.89-25.472 28.589-57.124 28.589-91.276 0-88.366-71.634-160-160-160s-160 71.634-160 160c0 88.366 71.634 160 160 160 22.471 0 43.861-4.633 63.266-12.995l-1.039 0.398c2.449-1.062 5.302-1.68 8.299-1.68 11.785 0 21.338 9.554 21.338 21.338 0 8.788-5.313 16.335-12.901 19.606l-0.139 0.053c-23.186 10.048-50.189 15.893-78.557 15.893-0.087 0-0.174 0-0.262 0h0.013z" />
<glyph unicode="&#xe90f;" glyph-name="collect" d="M720.399 0.427c73.045-31.317 136.96 15.317 129.707 94.293l-20.651 226.219 174.635 199.723c38.144 43.648 19.2 102.229-37.419 115.115l-258.475 58.795-135.68 228.011c-29.739 49.877-91.307 49.92-121.045 0l-135.723-228.011-258.475-58.795c-56.32-12.843-75.605-71.424-37.419-115.115l174.635-199.723-24.021-264.405c-5.248-57.771 44.544-94.037 97.877-71.125l243.627 104.533 208.427-89.472z" />
<glyph unicode="&#xe910;" glyph-name="collect2" d="M282.767 349.568l-182.272 208.512 269.867 61.44 141.653 237.824 141.611-237.909 269.824-61.397-182.272-208.512 27.307-300.757c2.044-21.846 20.289-38.81 42.496-38.81 23.567 0 42.671 19.104 42.671 42.671 0 1.359-0.064 2.704-0.188 4.031l0.013-0.17-24.021 264.405 174.635 199.723c38.144 43.648 19.2 102.229-37.419 115.115l-258.475 58.795-135.68 228.011c-29.739 49.877-91.307 49.92-121.045 0l-135.723-227.968-258.475-58.795c-56.32-12.843-75.605-71.424-37.419-115.115l174.635-199.723-24.021-264.405c-5.248-57.771 44.544-94.037 97.877-71.125l260.48 111.787c15.695 6.537 26.528 21.752 26.528 39.497 0 23.564-19.103 42.667-42.667 42.667-6.366 0-12.407-1.394-17.833-3.894l0.265 0.109-237.397-101.888 25.045 275.883z" />
<glyph unicode="&#xe911;" glyph-name="home" d="M905.33 464.811c-39.091 39.8-376.824 388.815-378.146 390.152-4.515 4.497-11.353 6.774-20.344 6.774-7.975 0-14.285-2.25-18.728-6.707l-380.569-393.853v-7.48c0-16.793 5.537-32.974 15.584-45.535 9.555-11.916 21.71-19.046 32.502-19.046h59.195v-284.838c0-50.616 34.873-68.578 64.739-68.578v0h-0.004c1.927 0 3.459 0.082 4.489 0.159h454.216c23.868 0 44.136 11.484 58.616 33.217 9.863 14.777 13.543 29.288 13.923 30.893l0.514 2.102 0.866 288.897h57.398c16.231 0 24.298 7.256 32.178 20.425 5.97 9.969 8.871 23.206 8.871 40.459v7.556l-5.301 5.404zM425.676 62.465v263.773c0 8.402 6.788 14.802 10.173 14.802h152.591c4.9 0 9.12-11.017 9.249-15.334 0.243-8.079 0.089-185.547 0.001-263.239h-172.014zM875.217 420.006c-0.783-1.303-1.46-2.425-5.634-2.425h-83.893l-0.978-310.72c-2.269-7.428-22.495-44.397-46.449-44.397h-113.927c0.054 60.29 0.227 255.23-0.042 264.307-0.221 7.536-1.279 19.498-7.674 25.89 0 0-13.437 14.969-28.176 14.969h-152.593c-25.119 0-36.788-13.802-36.788-41.399v-263.765l-117.759-0.094c-0.226-0.030-0.836-0.055-1.744-0.055-27.749 0-38.122 34.163-38.122 41.973v311.438h-83.843c-2.802 1.723-20.704 18.734-22.848 31.091l372.928 385.604c47.146-47.974 338.073-343.892 381.28-387.873-0.628-8.338-12.662-22.748-13.738-24.543z" />
<glyph unicode="&#xe912;" glyph-name="search" d="M464 96c220.914 0 400 179.086 400 400s-179.086 400-400 400c-220.914 0-400-179.086-400-400s179.086-400 400-400v0zM464 128c-203.241 0-368 164.759-368 368s164.759 368 368 368c203.241 0 368-164.759 368-368s-164.759-368-368-368zM954.667 28.4l-159.033 158.256c-6.264 6.233-16.394 6.208-22.627-0.055s-6.208-16.394 0.055-22.627l159.033-158.256c6.264-6.233 16.394-6.208 22.627 0.055s6.208 16.394-0.055 22.627z" />
<glyph unicode="&#xe913;" glyph-name="search1" d="M798.317 205.56l123.501-123.501c5.389-5.574 8.711-13.178 8.711-21.557 0-17.138-13.893-31.030-31.030-31.030-8.379 0-15.983 3.321-21.566 8.719l0.009-0.008-123.501 123.501c-72.707-63.105-168.286-101.563-272.846-101.563-0.219 0-0.439 0-0.658 0.001h0.035c-231.362 0-418.909 187.547-418.909 418.909s187.547 418.909 418.909 418.909 418.909-187.547 418.909-418.909c0-0.185 0-0.404 0-0.624 0-104.561-38.458-200.14-102.001-273.363l0.438 0.516zM480.97 122.182c197.089 0 356.848 159.76 356.848 356.848s-159.76 356.848-356.848 356.848-356.848-159.76-356.848-356.848 159.76-356.848 356.848-356.848z" />
<glyph unicode="&#xe914;" glyph-name="search2" d="M448 192c176.725 0 320 143.275 320 320s-143.275 320-320 320c-176.725 0-320-143.275-320-320s143.275-320 320-320zM448 149.333c-200.299 0-362.667 162.368-362.667 362.667s162.368 362.667 362.667 362.667 362.667-162.368 362.667-362.667-162.368-362.667-362.667-362.667zM752.917 176.917c-3.705 3.832-5.989 9.060-5.989 14.821 0 11.782 9.551 21.333 21.333 21.333 5.761 0 10.988-2.283 14.827-5.994l150.842-150.842c3.705-3.832 5.989-9.060 5.989-14.821 0-11.782-9.551-21.333-21.333-21.333-5.761 0-10.988 2.283-14.827 5.994l-150.842 150.821z" />
<glyph unicode="&#xe915;" glyph-name="classify2" d="M298.667 810.667c82.411 0 149.333-66.987 149.333-149.333v-149.333h-149.333c-82.411 0-149.333 66.987-149.333 149.333 0 82.411 66.987 149.333 149.333 149.333zM298.667 469.333h192v192c0 105.92-86.016 192-192 192-105.92 0-192-86.016-192-192 0-105.92 86.016-192 192-192zM298.667 426.667c-105.984 0-192-86.080-192-192 0-105.984 86.080-192 192-192 105.984 0 192 86.080 192 192v170.667c0 11.782-9.551 21.333-21.333 21.333h-170.667zM448 234.667c0-82.347-66.923-149.333-149.333-149.333-82.347 0-149.333 66.923-149.333 149.333 0 82.347 66.923 149.333 149.333 149.333h149.333v-149.333zM725.333 384c82.411 0 149.333-66.987 149.333-149.333 0-82.411-66.987-149.333-149.333-149.333-82.453 0-149.333 66.88-149.333 149.269v24.299c0 11.782-9.551 21.333-21.333 21.333s-21.333-9.551-21.333-21.333v0-24.299c0-105.941 85.973-191.936 192-191.936 105.92 0 192 86.016 192 192 0 105.92-86.016 192-192 192h-170.667c-11.782 0-21.333-9.551-21.333-21.333s9.551-21.333 21.333-21.333v0h170.667zM725.333 853.333c-105.984 0-192-86.080-192-192v-170.667c0-11.782 9.551-21.333 21.333-21.333h170.667c105.984 0 192 86.080 192 192 0 105.984-86.080 192-192 192zM725.333 512h-149.333v149.333c0 82.347 66.923 149.333 149.333 149.333 82.347 0 149.333-66.923 149.333-149.333 0-82.347-66.923-149.333-149.333-149.333z" />
<glyph unicode="&#xe916;" glyph-name="avatar" d="M1022.269 422.36c2.023-15.305 3.231-33.098 3.333-51.152l0.001-0.128c0-184.096-114.791-333.321-256.401-333.321-23.5 0.151-45.982 4.309-66.861 11.825l1.402-0.441c17.418 12.736 32.757 26.252 46.781 41.029l0.14 0.149c5.517-0.76 11.944-1.225 18.468-1.282h0.070c113.278 0 205.121 126.277 205.121 282.041-0.042 18.123-1.326 35.908-3.773 53.319l0.235-2.039h2.102c0.59 8.513 1.461 16.974 1.461 25.64 0 226.581-206.633 410.241-461.521 410.241s-461.521-183.66-461.521-410.241c0-8.666 0.872-17.128 1.461-25.64h2.102c-2.227-15.359-3.529-33.139-3.589-51.212v-0.068c0-155.763 91.843-282.041 205.121-282.041 6.594 0.057 13.020 0.522 19.326 1.369l-0.788-0.087c14.164-14.926 29.503-28.443 45.969-40.512l0.952-0.666c-19.477-7.075-41.959-11.234-65.391-11.384h-0.068c-141.61 0-256.401 149.225-256.401 333.321 0.101 18.18 1.309 35.973 3.56 53.439l-0.227-2.159h-1.897c-0.513 8.538-1.436 16.974-1.436 25.64 0 254.888 229.581 461.521 512.801 461.521s512.801-206.633 512.801-461.521c0-8.666-0.923-17.102-1.436-25.64h-1.897zM245.016 558.534l6.41-1.026c-0.692 0.846-1.59 1.59-2.256 2.564l54.101 15.384c57.793-60.793 163.866-101.817 286.451-101.817 1.409-0.015 3.075-0.024 4.742-0.024 70.321 0 137.073 15.279 197.118 42.698l-2.97-1.215 31.871-41.46c14.106-37.839 23.31-81.585 25.598-127.154l0.042-1.046c0-198.249-149.225-358.961-333.321-358.961s-333.321 160.712-333.321 358.961c-0.001 0.356-0.002 0.777-0.002 1.198 0 79.166 24.51 152.607 66.356 213.149l-0.819-1.252zM512.801 37.759c155.763 0 282.041 137.764 282.041 307.681-0.090 38.668-6.846 75.729-19.178 110.135l0.717-2.293c-51.61-19.689-111.298-31.091-173.648-31.091-4.576 0-9.137 0.061-13.683 0.183l0.671-0.014c-4.184-0.134-9.104-0.211-14.042-0.211-110.797 0-212.601 38.506-292.759 102.866l0.915-0.71c-33.265-50.085-53.077-111.607-53.077-177.756 0-0.39 0.001-0.78 0.002-1.17v0.061c0-169.917 126.277-307.681 282.041-307.681z" />
<glyph unicode="&#xe917;" glyph-name="avatar1" d="M89.982-63.995l107.109 248.499s21.423 81.409 107.109 81.409h432.735c81.414 0 107.109-81.409 107.109-81.409l89.974-248.499h-844.036zM509.854 291.614c-184.231 0-334.191 149.955-334.191 334.196s149.955 334.191 334.191 334.191c184.236 0 334.191-149.96 334.191-334.196-4.282-188.513-149.955-334.191-334.191-334.191zM454.16 865.738c-102.827-38.558 21.423-167.095-201.371-244.217 0-141.385 115.679-257.069 257.069-257.069s257.064 115.679 257.064 257.069c-132.82 107.114-351.326 59.986-312.763 244.217z" />
<glyph unicode="&#xe918;" glyph-name="avatar2" d="M388.164 380.563c0-51.241-15.071-92.828-33.66-92.828-18.578 0-33.636 41.587-33.636 92.828 0 51.27 15.058 92.828 33.636 92.828 18.588 0 33.66-41.559 33.66-92.828zM703.75 380.563c0-51.241-15.046-92.828-33.647-92.828-18.576 0-33.636 41.587-33.636 92.828 0 51.27 15.061 92.828 33.636 92.828 18.603 0 33.647-41.559 33.647-92.828zM511.151 830.745c-211.458 0-382.883-171.389-382.883-382.886 0-211.445 171.425-382.883 382.883-382.883s382.883 171.439 382.883 382.883c0 211.497-171.426 382.886-382.883 382.886zM511.151 109.059c-111.965 0-210.948 54.556-272.627 138.262v278.18h534.895v-288.883l0.138 0.153v-2.677c-62.086-76.215-156.443-125.035-262.406-125.035z" />
<glyph unicode="&#xe919;" glyph-name="avatar3" d="M515.998 832.051c-211.404 0-382.785-171.345-382.785-382.788 0-211.391 171.382-382.785 382.785-382.785 211.416 0 382.788 171.395 382.788 382.785 0 211.443-171.371 382.788-382.788 382.788zM515.998 110.55c-187.073 0-338.712 151.65-338.712 338.712 0 26.391 3.31 51.943 9.018 76.553h169.61l46.403 111.376v-109.057h227.365v109.057l46.402-111.376h169.611c5.708-24.609 9.031-50.161 9.031-76.553 0.001-187.062-151.652-338.712-338.728-338.712zM393.032 381.983c0-51.229-15.044-92.805-33.628-92.805-18.571 0-33.638 41.576-33.638 92.805 0 51.257 15.067 92.805 33.638 92.805 18.584 0 33.628-41.547 33.628-92.805zM708.565 381.983c0-51.229-15.070-92.805-33.641-92.805-18.584 0-33.638 41.576-33.638 92.805 0 51.257 15.054 92.805 33.638 92.805 18.571 0 33.641-41.547 33.641-92.805z" />
<glyph unicode="&#xe91a;" glyph-name="avatar4" d="M389.27 382.956c0-51.396-15.104-93.109-33.749-93.109-18.634 0-33.737 41.712-33.737 93.109 0 51.424 15.104 93.109 33.737 93.109 18.646 0 33.749-41.684 33.749-93.109zM705.821 382.956c0-51.396-15.116-93.109-33.749-93.109-18.645 0-33.737 41.712-33.737 93.109 0 51.424 15.093 93.109 33.737 93.109 18.631 0 33.749-41.684 33.749-93.109zM512.641 834.495c-212.108 0-384.050-171.905-384.050-384.040 0-212.081 171.942-384.037 384.050-384.037 212.095 0 384.024 171.955 384.024 384.037 0 212.134-171.93 384.040-384.024 384.040zM512.641 110.634c-157.747 0-289.985 107.625-328.31 253.331-18.503 141.797 70.043 160.277 70.043 160.277 51.678-6.187 47.538-47.538 47.538-47.538 70.287 37.187 57.889 101.287 57.889 101.287 84.765 6.21 76.497-86.848 76.497-86.848 86.835 24.818 76.507 122.015 76.507 122.015 90.949-22.746 43.397-132.313 43.397-132.313 119.908 30.977 119.908 99.242 119.908 99.242 76.481-45.521 47.564-113.711 47.564-113.711 43.409 8.257 64.087 43.424 64.087 43.424 44.432-14.543 59.153-58.732 61.2-105.607-22.646-165.718-164.379-293.559-336.321-293.559z" />
<glyph unicode="&#xe91b;" glyph-name="wubianxing" horiz-adv-x="1025" d="M830.863-33.516l-632.914-0.968-196.511 601.39 511.488 372.649 512.609-371.082z" />
<glyph unicode="&#xe91c;" glyph-name="circle" d="M0 448c0-282.77 229.23-512 512-512s512 229.23 512 512v0c0 282.77-229.23 512-512 512s-512-229.23-512-512v0z" />
<glyph unicode="&#xe91d;" glyph-name="discount" d="M128 510.208c0-12.373 9.003-34.133 17.707-42.837l428.331-428.331c-0.043 0.021 346.837 346.795 346.837 346.795l-428.245 428.459c-8.619 8.64-30.528 17.707-42.837 17.707h-321.643l-0.149-321.792zM85.333 831.851c0 23.637 19.093 42.816 42.816 42.816h321.643c23.637 0 56.405-13.589 73.024-30.208l428.309-428.309c16.683-16.683 16.64-43.755-0.064-60.48l-346.731-346.731c-7.748-7.746-18.45-12.537-30.272-12.537-11.79 0-22.467 4.765-30.209 12.475l-428.307 428.307c-16.683 16.683-30.208 49.301-30.208 73.024v321.643zM320 533.333c-58.91 0-106.667 47.756-106.667 106.667s47.756 106.667 106.667 106.667v0c58.91 0 106.667-47.756 106.667-106.667s-47.756-106.667-106.667-106.667v0zM320 576c35.346 0 64 28.654 64 64s-28.654 64-64 64v0c-35.346 0-64-28.654-64-64s28.654-64 64-64v0z" />
<glyph unicode="&#xe91e;" glyph-name="zheng" d="M62.009 898h899.981v-899.981h-899.981v899.981z" />
<glyph unicode="&#xe91f;" glyph-name="diamond-01" d="M4.557 604.738l489.214-607.201-196.208 607.201h-293.006zM350.772 604.738l173.272-608.455 149.041 608.455h-322.313zM550.37-2.484l470.964 607.201h-290.746l-180.218-607.201zM1022.403 644.444l-141.232 241.442-141.211-241.442h282.443zM836.8 899.717h-282.422l141.211-249.704 141.211 249.704zM652.163 644.444l-141.232 241.442-141.231-241.442h282.463zM469.602 899.717h-282.422l141.211-249.704 141.211 249.704zM142.808 885.886l-141.211-241.442h282.443l-141.232 241.442z" />
<glyph unicode="&#xe920;" glyph-name="hot" d="M300.8 14.933c-232.533 100.267-290.133 202.667-256 339.2 23.467 100.267 119.467 179.2 130.133 279.467 36.267-53.333 36.267-96 40.533-149.333 113.067 113.067 232.533 262.4 206.933 398.933 0 0 285.867-160 302.933-373.333 23.467 40.533 59.733 196.267 36.267 236.8 76.8-46.933 505.6-469.333-83.2-731.733 113.067 172.8 29.867 403.2-160 509.867 12.8-46.933-6.4-166.4-89.6-243.2 17.067 76.8-29.867 153.6-29.867 153.6s-17.067-96-76.8-166.4c-51.2-64-91.733-136.533-21.333-253.867z" />
<glyph unicode="&#xe921;" glyph-name="qiandao" horiz-adv-x="1069" d="M725.012 495.77c-12.472 14.689-34.591 16.461-49.275 3.937l-211.164-179.907-67.062 70.779c-13.302 14.024-35.364 14.577-49.439 1.326-6.735-6.383-10.926-15.393-10.926-25.382 0-9.327 3.654-17.801 9.609-24.067l-0.014 0.015 89.897-94.884c6.38-6.732 15.386-10.92 25.37-10.92 8.682 0 16.624 3.168 22.733 8.41l-0.047-0.039 236.385 201.405c14.684 12.58 16.456 34.642 3.932 49.326zM294.313 661.929c6.538-7.7 16.236-12.749 27.156-12.749 0.015 0 0.033 0 0.051 0 9.835 0 18.746 3.959 25.224 10.371l-0.003-0.003c6.402 6.376 10.363 15.198 10.363 24.945 0 0.038 0 0.075 0 0.113v-0.006 149.642c0 7.316-2.217 14.131-6.098 19.784-1.329 1.974-2.77 3.697-4.371 5.257l-0.007 0.007c-4.415 4.362-9.987 7.563-16.215 9.099l-0.241 0.050c-2.601 0.739-5.593 1.182-8.683 1.218h-0.021c-19.84 0-35.635-15.852-35.635-35.415v-149.591c0-8.699 3.267-16.512 8.479-22.723zM749.066 649.349c0.054 0 0.117 0 0.181 0 9.795 0 18.665 3.959 25.097 10.365l-0.001-0.001c6.399 6.379 10.358 15.201 10.358 24.949 0 0.036 0 0.073 0 0.109v-0.006 149.478c0 2.437-0.276 4.823-0.717 7.148-3.48 16.253-17.722 28.263-34.769 28.263-0.054 0-0.109 0-0.163 0h0.008c-19.845 0-35.635-15.852-35.635-35.415v-149.478c0-9.754 3.988-18.621 10.419-25.052 6.483-6.395 15.39-10.347 25.219-10.358h0.002zM996.7 687.872c-1.603 41.288-21.837 74.435-56.975 93.332-21.786 11.694-42.737 13.302-60.355 13.302h-27.489c-19.315 0-34.972-15.658-34.972-34.972s15.658-34.972 34.972-34.972v0c30.152 0 73.267 3.492 74.931-38.077 0-168.433 0.445-336.865 0.384-505.298v-45.947c0-21.059-16.236-37.683-35.804-37.683h-712.305c-20.342 0-35.804 17.956-35.804 37.683v550.968c0 26.772 22.395 40.458 46.889 40.458h27.494c19.313 0 34.97 15.656 34.97 34.97 0 0.002 0 0.004 0 0.005v0c0 19.343-15.683 34.913-34.97 34.913h-27.494c-50.048 0-100.982-29.542-113.946-80.307-2.442-9.533-4.157-20.229-4.157-30.095v-550.912c0-38.912 21.391-76.657 55.921-95.775 14.685-8.296 32.245-13.184 50.947-13.184 0.075 0 0.149 0 0.224 0h712.293c59.192 0 107.080 50.376 107.080 108.959l-1.833 552.632zM427.889 724.449h214.764c19.315 0 34.972 15.658 34.972 34.972s-15.658 34.972-34.972 34.972v0h-214.764c-0.126 0.002-0.274 0.003-0.423 0.003-19.316 0-34.975-15.659-34.975-34.975s15.659-34.975 34.975-34.975c0.149 0 0.297 0.001 0.446 0.003h-0.023z" />
<glyph unicode="&#xe922;" glyph-name="back" d="M714.416-0.294c13.023 12.711 32.599 31.816 55.386 54.054-132.493 129.908-264.225 259.080-396.703 388.975 135.675 133.566 267.109 262.952 398.507 392.311-25.771 24.939-45.768 44.286-63.432 61.382-150.093-147.081-301.99-295.93-455.779-446.632 155.384-151.372 308.171-300.212 462.021-450.090z" />
<glyph unicode="&#xe923;" glyph-name="more" d="M267.355 887.994c-13.516-12.813-13.516-33.603 0-46.417l414.889-393.58-414.889-393.566c-13.516-12.821-13.516-33.604 0-46.425 13.509-12.82 35.419-12.82 48.927 0l432.16 410.009c0 0 18.339 16.992 18.339 29.982 0 11.972-18.339 29.989-18.339 29.989l-432.159 410.008c-13.51 12.821-35.42 12.821-48.928 0z" />
<glyph unicode="&#xe924;" glyph-name="back2" d="M532.526 55.182l-393.020 393.020 393.020 393.020c12.258 12.258 12.432 32.892-0.187 45.511-12.707 12.707-32.995 12.703-45.512 0.187l-411.661-411.66c-7.12-7.12-10.163-17.066-8.991-26.624-1.5-9.755 1.51-20.011 8.991-27.491l411.661-411.661c12.258-12.258 32.892-12.432 45.512 0.187 12.707 12.707 12.702 32.995 0.187 45.511z" />
<glyph unicode="&#xe925;" glyph-name="more2" d="M492.676 55.182l393.020 393.020-393.020 393.020c-12.258 12.258-12.432 32.892 0.187 45.511 12.707 12.707 32.995 12.703 45.512 0.187l411.661-411.661c7.12-7.12 10.163-17.066 8.991-26.624 1.5-9.755-1.51-20.011-8.991-27.491l-411.661-411.66c-12.258-12.258-32.892-12.432-45.512 0.187-12.707 12.707-12.703 32.995-0.187 45.511z" />
<glyph unicode="&#xe926;" glyph-name="shopcart" d="M919.369 770.249h-705.28c-12.16 54.711-18.249 91.191-18.249 97.262 0 30.409-18.231 48.64-36.48 60.8-18.231 6.089-30.409 6.089-36.48 6.089v0h-66.871c-18.249 0-30.409-12.16-30.409-30.409 0-18.231 12.16-30.391 30.409-30.391h72.942c0 0 6.089 0 6.089-12.16 6.089-36.48 97.28-614.071 103.351-650.569 0-6.071 6.089-18.249 12.16-36.48 18.249-18.231 36.48-36.48 79.031-36.48h565.449c18.249 0 30.409 12.16 30.409 30.391s-12.16 30.409-30.409 30.409h-565.431c-6.089 0-18.231 0-24.32 6.089l-6.089 6.071v6.089c0 0-6.071 24.32-12.16 60.8h559.36c48.64 0 79.049 24.32 91.209 66.889v0l60.8 346.551v6.089c0 36.462-36.48 72.96-79.031 72.96v0 0 0zM882.889 356.809c-6.089-12.16-12.16-24.32-30.409-24.32h-571.52c-12.16 109.44-42.569 261.431-60.8 376.942h699.209c6.089 0 12.16-6.071 18.231-12.16l-54.711-340.462zM838.068 87.704c-34.823 0-63.052-28.229-63.052-63.052s28.229-63.052 63.052-63.052c34.823 0 63.052 28.229 63.052 63.052s-28.229 63.052-63.052 63.052v0zM333.437 87.704c-34.823 0-63.052-28.229-63.052-63.052s28.229-63.052 63.052-63.052c34.823 0 63.052 28.229 63.052 63.052s-28.229 63.052-63.052 63.052v0z" />
<glyph unicode="&#xe927;" glyph-name="time" d="M715.981 439.235h-201.564v301.916c0 18.842-15.032 33.628-33.546 33.628-18.678 0-33.546-15.073-33.546-33.628v-335.421c0-18.842 15.032-33.628 33.546-33.628 1.884 0 3.727 0.164 5.53 0.451 1.802-0.287 3.604-0.451 5.489-0.451h224.092c18.555 0 33.341 15.032 33.341 33.546 0 18.678-14.95 33.587-33.341 33.587zM503.235 931.41c-271.811 0-492.175-220.365-492.175-492.175s220.365-492.175 492.175-492.175c271.811 0 492.175 220.365 492.175 492.175s-220.365 492.175-492.175 492.175zM503.235 14.152c-234.783 0-425.083 190.3-425.083 425.083s190.3 425.083 425.083 425.083c234.742 0 425.083-190.3 425.083-425.083 0-234.742-190.341-425.083-425.083-425.083z" />
<glyph unicode="&#xe928;" glyph-name="point-large" d="M271.77 448.102c0-132.676 107.555-240.23 240.23-240.23s240.23 107.555 240.23 240.23v0c0 132.676-107.555 240.23-240.23 240.23s-240.23-107.555-240.23-240.23v0z" />
<glyph unicode="&#xe929;" glyph-name="right-(1)" d="M889.417 479.817c-141.458 155.209-282.88 310.455-424.375 465.664-39.79 43.666-104.265-21.175-64.658-64.658 131.474-144.238 262.912-288.549 394.423-432.823-132.608-140.581-265.179-281.161-397.751-421.742-40.411-42.862 24.137-107.593 64.658-64.658 141.093 149.614 282.185 299.227 423.278 448.805 3.803 4.023 6.4 8.265 8.448 12.581 10.752 16.274 12.763 38.437-4.023 56.832z" />
<glyph unicode="&#xe92a;" glyph-name="right" d="M512 960c-282.8 0-512-229.2-512-512s229.2-512 512-512c282.768 0 512 229.2 512 512s-229.232 512-512 512v0 0zM512-16c-256.264 0-464 207.736-464 464s207.736 464 464 464c256.264 0 464-207.736 464-464s-207.736-464-464-464v0 0zM833.168 616.264l-381.832-381.864c-6.336-6.264-14.568-9.4-22.8-9.336-8.232 0-16.464 3.072-22.736 9.336l-214.968 215c-12.496 12.464-12.496 32.736 0 45.264 12.504 12.464 32.768 12.464 45.232 0l192.464-192.464 359.336 359.336c12.496 12.464 32.8 12.464 45.304 0 12.496-12.536 12.496-32.8 0-45.272v0 0z" />
<glyph unicode="&#xe92b;" glyph-name="flower" horiz-adv-x="1053" d="M530.010 604.945c46.312 0 92.623-20.583 123.497-51.457v-5.146c36.020-30.874 51.457-72.040 51.457-123.497 0-46.312-20.583-92.623-51.457-123.497s-77.186-51.457-123.497-51.457c-51.457 0-92.623 20.583-123.497 51.457-36.020 30.874-56.603 77.186-56.603 123.497 0 51.457 20.583 97.769 56.603 128.643 30.874 30.874 72.040 51.457 123.497 51.457zM612.342 512.322c-20.583 20.583-51.457 36.020-82.332 36.020-36.020 0-61.749-15.437-87.477-36.020-20.583-20.583-36.020-51.457-36.020-87.477 0-30.874 15.437-61.749 36.020-82.332 25.729-20.583 51.457-36.020 87.477-36.020 30.874 0 61.749 15.437 82.332 36.020 25.729 20.583 36.020 51.457 36.020 82.332 0 36.020-10.291 61.749-30.874 87.477h-5.146zM843.899-7.397c-51.457-36.020-108.060-51.457-169.809-46.312-46.312 5.146-97.769 20.583-133.789 56.603-41.166-36.020-87.477-56.603-138.935-61.749-56.603-10.291-113.206 5.146-164.663 36.020l-5.146 5.146c-51.457 30.874-82.332 82.332-102.915 138.935-10.291 46.312-10.291 97.769 5.146 144.080-46.312 25.729-82.332 61.749-102.915 108.060-30.874 51.457-36.020 108.060-25.729 169.809 5.146 10.291 5.146 25.729 10.291 36.020 20.583 56.603 66.894 102.915 118.352 128.643 51.457 30.874 108.060 41.166 169.809 25.729 5.146 61.749 30.874 113.206 72.040 154.372 46.312 41.166 102.915 66.894 164.663 72.040h30.874c61.749-5.146 118.352-36.020 159.518-77.186 36.020-30.874 61.749-77.186 66.894-128.643 51.457 0 102.915-15.437 144.080-41.166 46.312-36.020 82.332-82.332 102.915-144.080 15.437-56.603 10.291-118.352-15.437-169.809-20.583-46.312-56.603-87.477-97.769-113.206 15.437-46.312 20.583-97.769 10.291-144.080-15.437-56.603-46.312-108.060-97.769-149.226zM679.236 2.894c46.312-5.146 92.623 10.291 128.643 36.020 41.166 30.874 66.894 72.040 77.186 113.206 10.291 46.312 5.146 92.623-15.437 133.789-10.291 15.437 0 30.874 10.291 41.166 46.312 20.583 77.186 51.457 97.769 92.623s25.729 87.477 10.291 133.789c-10.291 46.312-41.166 87.477-77.186 113.206-41.166 20.583-87.477 36.020-133.789 30.874-15.437-5.146-30.874 10.291-30.874 25.729-5.146 46.312-25.729 87.477-56.603 123.497-30.874 30.874-72.040 51.457-118.352 56.603h-30.874c-46.312 0-92.623-20.583-123.497-56.603-30.874-30.874-56.603-72.040-56.603-123.497-5.146-5.146-5.146-15.437 0-25.729 0 0-5.146-5.146-5.146-10.291-5.146-15.437-20.583-20.583-36.020-15.437-10.291 0-15.437 5.146-25.729 5.146-46.312 10.291-92.623 5.146-133.789-15.437s-72.040-56.603-92.623-102.915c0-10.291-5.146-15.437-5.146-25.729-10.291-46.312-5.146-97.769 15.437-133.789 25.729-41.166 56.603-72.040 102.915-92.623 15.437-5.146 20.583-20.583 15.437-36.020-20.583-46.312-20.583-92.623-10.291-133.789 10.291-46.312 41.166-82.332 77.186-108.060h5.146c36.020-30.874 82.332-36.020 128.643-30.874s87.477 25.729 118.352 61.749h5.146c10.291 10.291 25.729 10.291 36.020 0 36.020-30.874 77.186-51.457 123.497-56.603z" />
<glyph unicode="&#xe92c;" glyph-name="quill" d="M0-64c128 384 463 1024 1024 1024-263-211-384-704-576-704s-192 0-192 0l-192-320h-64z" />
<glyph unicode="&#xe92d;" glyph-name="share" d="M916.48 442.88c-16.384 0-29.184-13.312-29.184-29.184v-278.016c0-35.84-29.184-64.512-64.512-64.512h-621.056c-35.84 0-64.512 29.184-64.512 64.512v584.192c0 35.84 29.184 64.512 64.512 64.512h202.24c16.384 0 29.184 13.312 29.184 29.184 0 16.384-13.312 29.184-29.184 29.184h-202.24c-68.096 0-123.392-55.296-123.392-123.392v-584.192c0-68.096 55.296-123.392 123.392-123.392h621.056c68.096 0 123.392 55.296 123.392 123.392v278.016c-0.512 16.384-13.312 29.696-29.696 29.696zM298.496 270.336c-3.072-15.872 7.68-31.232 23.552-34.304 1.536-0.512 3.584-0.512 5.12-0.512 13.824 0 26.112 9.728 28.672 24.064 0 1.024 23.552 124.928 104.96 248.32 47.104 71.68 104.448 128.512 170.496 169.472 62.976 38.912 133.632 62.976 211.456 72.192l-95.744-98.816c-11.264-11.776-11.264-30.208 0.512-41.472 5.632-5.632 13.312-8.192 20.48-8.192 7.68 0 15.36 3.072 20.992 8.704l152.064 156.672s0 0.512 0.512 0.512c0 0 0 0.512 0.512 0.512 0 0 0 0.512 0.512 0.512 0 0.512 0.512 0.512 0.512 1.024v0.512s0 0.512 0.512 0.512v0.512s0 0.512 0.512 0.512v0.512s0 0.512 0.512 0.512v18.944c0 0.512 0 0.512-0.512 1.024 0 0 0 0.512-0.512 0.512v0.512c0 0.512 0 0.512-0.512 1.024v0.512c0 0.512 0 0.512-0.512 1.024s-0.512 1.024-1.024 1.536c0 0.512-0.512 1.024-0.512 1.024l-0.512 0.512v1.536l-0.512 0.512v0.512l-4.608 4.608c-0.512 0-0.512 0.512-1.024 0.512h-0.512s-0.512 0-0.512 0.512h-0.512s-0.512 0-0.512 0.512h-1.024s-0.512 0-0.512 0.512l-0.512 0.512s-0.512 0-0.512 0.512c0 0-0.512 0-0.512 0.512 0 0-0.512 0-0.512 0.512 0 0-0.512 0-0.512 0.512 0 0-0.512 0-0.512 0.512h-1.024l-216.064 71.68c-15.36 5.12-32.256-3.072-37.376-18.432s3.072-32.256 18.432-37.376l87.040-28.672c-64-13.824-123.392-37.376-177.152-71.168-73.216-45.056-136.704-108.032-188.416-186.88-88.576-132.608-113.664-264.192-114.688-269.824z" />
<glyph unicode="&#xe92e;" glyph-name="rise" d="M967.172 587.346l-317.736 372.654-383.51-324.852 54.37-37.493 191.572 75.808c62.124-499.457-281.611-648.609-455.212-697.962l11.586-39.5c184.913 52.546 643.866 92.046 681.906 718.032l171.503-102.719 45.521 36.034z" />
<glyph unicode="&#xe92f;" glyph-name="rise1" d="M462.339 933.434c10.211 16.063 27.914 26.566 48.069 26.566 0.1 0 0.199 0 0.299-0.001h-0.015c0.015 0 0.033 0 0.050 0 20.174 0 37.895-10.501 47.995-26.336l0.137-0.23c7.964-2.674 15.416-7.224 21.787-13.539l281.755-281.868c10.278-10.257 16.636-24.438 16.636-40.105 0-15.723-6.404-29.95-16.746-40.214l-0.003-0.003c-10.287-10.304-24.508-16.679-40.218-16.679-15.653 0-29.828 6.329-40.106 16.567l-214.457 214.457v-779.561c-0.032-31.205-25.335-56.488-56.544-56.488-0.12 0-0.24 0-0.36 0.001h0.018c-31.401 0-56.886 25.314-56.886 56.487v779.618l-214.459-214.459c-10.27-10.203-24.422-16.508-40.047-16.508-15.71 0-29.931 6.375-40.218 16.678l-0.001 0.001c-10.312 10.263-16.693 24.467-16.693 40.161 0 15.638 6.335 29.796 16.579 40.048l281.754 281.868c5.933 5.949 13.184 10.58 21.278 13.418l0.395 0.121z" />
<glyph unicode="&#xe930;" glyph-name="add-(1)" d="M955.2 418.4c15.2 0 28 13.6 28 29.6s-12 29.6-28 29.6h-886.4c-15.2 0-28-13.6-28-29.6s12-29.6 28-29.6h886.4zM484-24.8c0-16 12-29.6 28-29.6 15.2 0 28 13.6 28 29.6v945.6c0 16-12 29.6-28 29.6-15.2 0-28-13.6-28-29.6v-945.6z" />
<glyph unicode="&#xe931;" glyph-name="jian" d="M935.209 452.035h-845.974v58.196h845.974v-58.196z" />
<glyph unicode="&#xe932;" glyph-name="cancel" d="M889.124 116.132l-331.87 331.868 331.87 331.868c12.446 12.446 12.446 32.811 0 45.254-12.446 12.446-32.811 12.446-45.254 0l-331.87-331.868-331.868 331.87c-12.446 12.446-32.811 12.446-45.254 0-12.446-12.446-12.446-32.811 0-45.254l331.868-331.87-331.87-331.868c-12.446-12.446-12.446-32.811 0-45.254 12.446-12.446 32.811-12.446 45.254 0l331.87 331.868 331.868-331.868c12.446-12.446 32.811-12.446 45.254 0 12.446 12.444 12.446 32.809 0.002 45.254z" />
<glyph unicode="&#xe949;" glyph-name="compass" d="M544.010-64.004c-2.296 0-4.622 0.25-6.94 0.764-14.648 3.25-25.070 16.238-25.070 31.24v480h-480c-15.002 0-27.992 10.422-31.24 25.070-3.25 14.646 4.114 29.584 17.708 35.928l960 448c12.196 5.688 26.644 3.144 36.16-6.372 9.516-9.514 12.060-23.966 6.372-36.16l-448-960c-5.342-11.44-16.772-18.47-28.99-18.47zM176.242 512h367.758c17.674 0 32-14.328 32-32v-367.758l349.79 749.546-749.548-349.788z" />
<glyph unicode="&#xe94e;" glyph-name="clock" d="M658.744 210.744l-210.744 210.746v282.51h128v-229.49l173.256-173.254zM512 960c-282.77 0-512-229.23-512-512s229.23-512 512-512 512 229.23 512 512-229.23 512-512 512zM512 64c-212.078 0-384 171.922-384 384s171.922 384 384 384c212.078 0 384-171.922 384-384s-171.922-384-384-384z" />
<glyph unicode="&#xe94f;" glyph-name="clock2" d="M512 960c-282.77 0-512-229.23-512-512s229.23-512 512-512 512 229.23 512 512-229.23 512-512 512zM658.744 210.744l-210.744 210.746v282.51h128v-229.49l173.256-173.254-90.512-90.512z" />
<glyph unicode="&#xe97a;" glyph-name="spinner" d="M384 832c0 70.692 57.308 128 128 128s128-57.308 128-128c0-70.692-57.308-128-128-128s-128 57.308-128 128zM655.53 719.53c0 70.692 57.308 128 128 128s128-57.308 128-128c0-70.692-57.308-128-128-128s-128 57.308-128 128zM832 448c0 35.346 28.654 64 64 64s64-28.654 64-64c0-35.346-28.654-64-64-64s-64 28.654-64 64zM719.53 176.47c0 35.346 28.654 64 64 64s64-28.654 64-64c0-35.346-28.654-64-64-64s-64 28.654-64 64zM448.002 64c0 0 0 0 0 0 0 35.346 28.654 64 64 64s64-28.654 64-64c0 0 0 0 0 0 0-35.346-28.654-64-64-64s-64 28.654-64 64zM176.472 176.47c0 0 0 0 0 0 0 35.346 28.654 64 64 64s64-28.654 64-64c0 0 0 0 0 0 0-35.346-28.654-64-64-64s-64 28.654-64 64zM144.472 719.53c0 0 0 0 0 0 0 53.019 42.981 96 96 96s96-42.981 96-96c0 0 0 0 0 0 0-53.019-42.981-96-96-96s-96 42.981-96 96zM56 448c0 39.765 32.235 72 72 72s72-32.235 72-72c0-39.765-32.235-72-72-72s-72 32.235-72 72z" />
<glyph unicode="&#xe97c;" glyph-name="spinner3" d="M512 656.904c-32.964 0-59.686 26.724-59.686 59.686v179.060c0 32.964 26.722 59.686 59.686 59.686 32.962 0 59.688-26.722 59.688-59.686v-179.060c0-32.964-26.726-59.686-59.688-59.686zM512-36.956c-20.602 0-37.304 16.702-37.304 37.304v179.060c0 20.602 16.702 37.304 37.304 37.304 20.604 0 37.304-16.704 37.304-37.304v-179.060c0-20.602-16.7-37.304-37.304-37.304zM377.756 624.64c-19.34 0-38.146 10.034-48.512 27.988l-89.53 155.070c-15.452 26.764-6.282 60.986 20.482 76.438 26.762 15.45 60.986 6.284 76.438-20.482l89.53-155.072c15.452-26.764 6.282-60.986-20.482-76.438-8.81-5.084-18.432-7.504-27.926-7.504zM735.856 26.744c-11.602 0-22.886 6.022-29.108 16.792l-89.53 155.070c-9.27 16.056-3.77 36.592 12.29 45.864 16.056 9.264 36.59 3.77 45.864-12.292l89.532-155.068c9.27-16.058 3.768-36.592-12.292-45.864-5.286-3.048-11.060-4.502-16.756-4.502zM279.344 530.060c-8.86 0-17.838 2.256-26.064 7.006l-155.072 89.53c-24.978 14.422-33.538 46.362-19.116 71.342 14.42 24.978 46.364 33.538 71.342 19.116l155.070-89.53c24.98-14.422 33.538-46.362 19.116-71.34-9.668-16.756-27.226-26.124-45.276-26.124zM899.648 194.326c-5.064 0-10.196 1.29-14.894 4.004l-155.068 89.53c-14.274 8.24-19.164 26.494-10.924 40.768 8.242 14.276 26.496 19.166 40.766 10.924l155.070-89.532c14.274-8.24 19.164-26.492 10.924-40.766-5.53-9.574-15.562-14.928-25.874-14.928zM243.41 399.504h-179.060c-26.784 0-48.496 21.712-48.496 48.496s21.712 48.496 48.496 48.496h179.060c26.784 0 48.496-21.712 48.496-48.496s-21.712-48.496-48.496-48.496zM959.65 418.156c-0.002 0 0 0 0 0h-179.060c-16.482 0.002-29.844 13.364-29.844 29.844s13.364 29.844 29.844 29.844c0.002 0 0 0 0 0h179.060c16.482 0 29.844-13.362 29.844-29.844 0-16.48-13.364-29.844-29.844-29.844zM124.366 179.402c-15.472 0-30.518 8.028-38.81 22.39-12.362 21.41-5.026 48.79 16.384 61.148l155.072 89.532c21.41 12.368 48.79 5.028 61.15-16.384 12.362-21.412 5.026-48.79-16.384-61.15l-155.072-89.53c-7.050-4.070-14.748-6.006-22.34-6.006zM744.632 552.448c-10.314 0-20.346 5.352-25.874 14.926-8.24 14.274-3.35 32.526 10.924 40.768l155.070 89.528c14.272 8.236 32.526 3.352 40.768-10.922 8.24-14.274 3.35-32.526-10.924-40.768l-155.070-89.528c-4.7-2.714-9.83-4.004-14.894-4.004zM288.136 19.284c-6.962 0-14.016 1.774-20.48 5.504-19.626 11.332-26.35 36.428-15.020 56.054l89.53 155.070c11.33 19.628 36.426 26.352 56.054 15.022 19.626-11.332 26.35-36.43 15.020-56.054l-89.53-155.072c-7.598-13.166-21.392-20.524-35.574-20.524zM646.266 650.758c-5.062 0-10.196 1.29-14.894 4.002-14.274 8.242-19.164 26.494-10.924 40.766l89.534 155.070c8.24 14.274 26.492 19.166 40.766 10.922 14.274-8.242 19.164-26.494 10.924-40.766l-89.532-155.070c-5.53-9.57-15.56-14.924-25.874-14.924z" />
<glyph unicode="&#xe97f;" glyph-name="spinner6" d="M384 832c0 70.692 57.308 128 128 128s128-57.308 128-128c0-70.692-57.308-128-128-128s-128 57.308-128 128zM790.994 448c0 0 0 0 0 0 0 57.993 47.013 105.006 105.006 105.006s105.006-47.013 105.006-105.006c0 0 0 0 0 0 0-57.993-47.013-105.006-105.006-105.006s-105.006 47.013-105.006 105.006zM688.424 176.47c0 52.526 42.58 95.106 95.106 95.106s95.106-42.58 95.106-95.106c0-52.526-42.58-95.106-95.106-95.106s-95.106 42.58-95.106 95.106zM425.862 64c0 47.573 38.565 86.138 86.138 86.138s86.138-38.565 86.138-86.138c0-47.573-38.565-86.138-86.138-86.138s-86.138 38.565-86.138 86.138zM162.454 176.47c0 43.088 34.93 78.018 78.018 78.018s78.018-34.93 78.018-78.018c0-43.088-34.93-78.018-78.018-78.018s-78.018 34.93-78.018 78.018zM57.338 448c0 39.026 31.636 70.662 70.662 70.662s70.662-31.636 70.662-70.662c0-39.026-31.636-70.662-70.662-70.662s-70.662 31.636-70.662 70.662zM176.472 719.528c0 0 0 0 0 0 0 35.346 28.654 64 64 64s64-28.654 64-64c0 0 0 0 0 0 0-35.346-28.654-64-64-64s-64 28.654-64 64zM899.464 719.528c0-64.024-51.906-115.934-115.936-115.934-64.024 0-115.936 51.91-115.936 115.934 0 64.032 51.912 115.934 115.936 115.934 64.030 0 115.936-51.902 115.936-115.934z" />
<glyph unicode="&#xe980;" glyph-name="spinner7" d="M416 32c0 53.019 42.981 96 96 96s96-42.981 96-96c0-53.019-42.981-96-96-96s-96 42.981-96 96zM0 448c0 53.019 42.981 96 96 96s96-42.981 96-96c0-53.019-42.981-96-96-96s-96 42.981-96 96zM832 448c0 53.019 42.981 96 96 96s96-42.981 96-96c0-53.019-42.981-96-96-96s-96 42.981-96 96zM121.844 742.156c0 53.019 42.981 96 96 96s96-42.981 96-96c0-53.019-42.981-96-96-96s-96 42.981-96 96zM710.156 153.844c0 53.019 42.981 96 96 96s96-42.981 96-96c0-53.019-42.981-96-96-96s-96 42.981-96 96zM121.844 153.844c0 53.019 42.981 96 96 96s96-42.981 96-96c0-53.019-42.981-96-96-96s-96 42.981-96 96zM710.156 742.156c0 53.019 42.981 96 96 96s96-42.981 96-96c0-53.019-42.981-96-96-96s-96 42.981-96 96z" />
<glyph unicode="&#xe982;" glyph-name="spinner9" d="M512 960c-278.748 0-505.458-222.762-511.848-499.974 5.92 241.864 189.832 435.974 415.848 435.974 229.75 0 416-200.576 416-448 0-53.020 42.98-96 96-96s96 42.98 96 96c0 282.77-229.23 512-512 512zM512-64c278.748 0 505.458 222.762 511.848 499.974-5.92-241.864-189.832-435.974-415.848-435.974-229.75 0-416 200.576-416 448 0 53.020-42.98 96-96 96s-96-42.98-96-96c0-282.77 229.23-512 512-512z" />
<glyph unicode="&#xe9a4;" glyph-name="leaf" d="M1011.328 825.504c-110.752 83.928-281.184 134.034-455.91 134.034-216.12 0-392.226-75.456-483.16-207.020-42.708-61.79-66.33-134.958-70.208-217.474-3.454-73.474 8.884-154.726 36.684-242.146 94.874 284.384 359.82 507.102 665.266 507.102 0 0-285.826-75.232-465.524-308.192-0.112-0.138-2.494-3.090-6.614-8.698-36.080-48.278-67.538-103.162-91.078-165.328-39.87-94.83-76.784-224.948-76.784-381.782h128c0 0-19.43 122.222 14.36 262.79 55.89-7.556 105.858-11.306 150.852-11.306 117.678 0 201.37 25.46 263.388 80.124 55.568 48.978 86.198 114.786 118.624 184.456 49.524 106.408 105.654 227.010 268.654 320.152 9.33 5.332 15.362 14.992 16.056 25.716s-4.040 21.080-12.606 27.572z" />
<glyph unicode="&#xe9a5;" glyph-name="rocket" d="M704 896l-320-320h-192l-192-256c0 0 203.416 56.652 322.066 30.084l-322.066-414.084 421.902 328.144c58.838-134.654-37.902-328.144-37.902-328.144l256 192v192l320 320 64 320-320-64z" />
<glyph unicode="&#xe9a9;" glyph-name="fire" d="M321.008-64c-68.246 142.008-31.902 223.378 20.55 300.044 57.44 83.956 72.244 167.066 72.244 167.066s45.154-58.7 27.092-150.508c79.772 88.8 94.824 230.28 82.782 284.464 180.314-126.012 257.376-398.856 153.522-601.066 552.372 312.532 137.398 780.172 65.154 832.85 24.082-52.676 28.648-141.85-20-185.126-82.352 312.276-285.972 376.276-285.972 376.276 24.082-161.044-87.296-337.144-194.696-468.73-3.774 64.216-7.782 108.528-41.55 169.98-7.58-116.656-96.732-211.748-120.874-328.628-32.702-158.286 24.496-274.18 241.748-396.622z" />
<glyph unicode="&#xe9b2;" glyph-name="accessibility" d="M416 864c0 53.018 42.98 96 96 96s96-42.982 96-96c0-53.020-42.98-96-96-96s-96 42.98-96 96zM640 640l329.596 142.172-23.77 59.424-401.826-137.596h-64l-401.826 137.596-23.77-59.424 329.596-142.172v-256l-131.27-424.57 59.84-22.7 185.716 415.27h27.428l185.716-415.27 59.84 22.7-131.27 424.57z" />
<glyph unicode="&#xe9d7;" glyph-name="star-empty" d="M1024 562.95l-353.78 51.408-158.22 320.582-158.216-320.582-353.784-51.408 256-249.538-60.432-352.352 316.432 166.358 316.432-166.358-60.434 352.352 256.002 249.538zM512 206.502l-223.462-117.48 42.676 248.83-180.786 176.222 249.84 36.304 111.732 226.396 111.736-226.396 249.836-36.304-180.788-176.222 42.678-248.83-223.462 117.48z" />
<glyph unicode="&#xe9d8;" glyph-name="star-half" d="M1024 562.95l-353.78 51.408-158.22 320.582-158.216-320.582-353.784-51.408 256-249.538-60.432-352.352 316.432 166.358 316.432-166.358-60.434 352.352 256.002 249.538zM512 206.502l-0.942-0.496 0.942 570.768 111.736-226.396 249.836-36.304-180.788-176.222 42.678-248.83-223.462 117.48z" />
<glyph unicode="&#xe9d9;" glyph-name="star-full" d="M1024 562.95l-353.78 51.408-158.22 320.582-158.216-320.582-353.784-51.408 256-249.538-60.432-352.352 316.432 166.358 316.432-166.358-60.434 352.352 256.002 249.538z" />
<glyph unicode="&#xe9da;" glyph-name="heart" d="M755.188 896c-107.63 0-200.258-87.554-243.164-179-42.938 91.444-135.578 179-243.216 179-148.382 0-268.808-120.44-268.808-268.832 0-301.846 304.5-380.994 512.022-679.418 196.154 296.576 511.978 387.206 511.978 679.418 0 148.392-120.43 268.832-268.812 268.832z" />
<glyph unicode="&#xea08;" glyph-name="notification" d="M512 864c-111.118 0-215.584-43.272-294.156-121.844s-121.844-183.038-121.844-294.156c0-111.118 43.272-215.584 121.844-294.156s183.038-121.844 294.156-121.844c111.118 0 215.584 43.272 294.156 121.844s121.844 183.038 121.844 294.156c0 111.118-43.272 215.584-121.844 294.156s-183.038 121.844-294.156 121.844zM512 960v0c282.77 0 512-229.23 512-512s-229.23-512-512-512c-282.77 0-512 229.23-512 512s229.23 512 512 512zM448 256h128v-128h-128zM448 768h128v-384h-128z" />
<glyph unicode="&#xea09;" glyph-name="question" d="M448 256h128v-128h-128zM704 704c35.346 0 64-28.654 64-64v-192l-192-128h-128v64l192 128v64h-320v128h384zM512 864c-111.118 0-215.584-43.272-294.156-121.844s-121.844-183.038-121.844-294.156c0-111.118 43.272-215.584 121.844-294.156s183.038-121.844 294.156-121.844c111.118 0 215.584 43.272 294.156 121.844s121.844 183.038 121.844 294.156c0 111.118-43.272 215.584-121.844 294.156s-183.038 121.844-294.156 121.844zM512 960v0c282.77 0 512-229.23 512-512s-229.23-512-512-512c-282.77 0-512 229.23-512 512s229.23 512 512 512z" />
<glyph unicode="&#xea0a;" glyph-name="plus" d="M992 576h-352v352c0 17.672-14.328 32-32 32h-192c-17.672 0-32-14.328-32-32v-352h-352c-17.672 0-32-14.328-32-32v-192c0-17.672 14.328-32 32-32h352v-352c0-17.672 14.328-32 32-32h192c17.672 0 32 14.328 32 32v352h352c17.672 0 32 14.328 32 32v192c0 17.672-14.328 32-32 32z" />
<glyph unicode="&#xea0b;" glyph-name="minus" d="M0 544v-192c0-17.672 14.328-32 32-32h960c17.672 0 32 14.328 32 32v192c0 17.672-14.328 32-32 32h-960c-17.672 0-32-14.328-32-32z" />
<glyph unicode="&#xea0c;" glyph-name="info" d="M448 656c0 26.4 21.6 48 48 48h32c26.4 0 48-21.6 48-48v-32c0-26.4-21.6-48-48-48h-32c-26.4 0-48 21.6-48 48v32zM640 192h-256v64h64v192h-64v64h192v-256h64zM512 960c-282.77 0-512-229.23-512-512s229.23-512 512-512 512 229.23 512 512-229.23 512-512 512zM512 32c-229.75 0-416 186.25-416 416s186.25 416 416 416 416-186.25 416-416-186.25-416-416-416z" />
<glyph unicode="&#xea0d;" glyph-name="cancel-circle" d="M512 960c-282.77 0-512-229.23-512-512s229.23-512 512-512 512 229.23 512 512-229.23 512-512 512zM512 32c-229.75 0-416 186.25-416 416s186.25 416 416 416 416-186.25 416-416-186.25-416-416-416zM672 704l-160-160-160 160-96-96 160-160-160-160 96-96 160 160 160-160 96 96-160 160 160 160z" />
<glyph unicode="&#xea0f;" glyph-name="cross" d="M1014.662 137.34c-0.004 0.004-0.008 0.008-0.012 0.010l-310.644 310.65 310.644 310.65c0.004 0.004 0.008 0.006 0.012 0.010 3.344 3.346 5.762 7.254 7.312 11.416 4.246 11.376 1.824 24.682-7.324 33.83l-146.746 146.746c-9.148 9.146-22.45 11.566-33.828 7.32-4.16-1.55-8.070-3.968-11.418-7.31 0-0.004-0.004-0.006-0.008-0.010l-310.648-310.652-310.648 310.65c-0.004 0.004-0.006 0.006-0.010 0.010-3.346 3.342-7.254 5.76-11.414 7.31-11.38 4.248-24.682 1.826-33.83-7.32l-146.748-146.748c-9.148-9.148-11.568-22.452-7.322-33.828 1.552-4.16 3.97-8.072 7.312-11.416 0.004-0.002 0.006-0.006 0.010-0.010l310.65-310.648-310.65-310.652c-0.002-0.004-0.006-0.006-0.008-0.010-3.342-3.346-5.76-7.254-7.314-11.414-4.248-11.376-1.826-24.682 7.322-33.83l146.748-146.746c9.15-9.148 22.452-11.568 33.83-7.322 4.16 1.552 8.070 3.97 11.416 7.312 0.002 0.004 0.006 0.006 0.010 0.010l310.648 310.65 310.648-310.65c0.004-0.002 0.008-0.006 0.012-0.008 3.348-3.344 7.254-5.762 11.414-7.314 11.378-4.246 24.684-1.826 33.828 7.322l146.746 146.748c9.148 9.148 11.57 22.454 7.324 33.83-1.552 4.16-3.97 8.068-7.314 11.414z" />
<glyph unicode="&#xea10;" glyph-name="checkmark" d="M864 832l-480-480-224 224-160-160 384-384 640 640z" />
<glyph unicode="&#xea11;" glyph-name="checkmark2" d="M397.434 42.304l-397.868 391.6 197.378 194.27 200.49-197.332 429.62 422.852 197.378-194.27-626.998-617.12zM107.912 433.904l289.524-284.962 518.656 510.482-89.036 87.632-429.62-422.852-200.49 197.334-89.034-87.634z" />
<glyph unicode="&#xea41;" glyph-name="circle-up" d="M0 448c0-282.77 229.23-512 512-512s512 229.23 512 512-229.23 512-512 512-512-229.23-512-512zM928 448c0-229.75-186.25-416-416-416s-416 186.25-416 416 186.25 416 416 416 416-186.25 416-416zM706.744 290.744l90.512 90.512-285.256 285.254-285.254-285.256 90.508-90.508 194.746 194.744z" />
<glyph unicode="&#xea42;" glyph-name="circle-right" d="M512 960c-282.77 0-512-229.23-512-512s229.23-512 512-512 512 229.23 512 512-229.23 512-512 512zM512 32c-229.75 0-416 186.25-416 416s186.25 416 416 416 416-186.25 416-416-186.25-416-416-416zM354.744 253.256l90.512-90.512 285.254 285.256-285.256 285.254-90.508-90.508 194.744-194.746z" />
<glyph unicode="&#xea43;" glyph-name="circle-down" d="M1024 448c0 282.77-229.23 512-512 512s-512-229.23-512-512 229.23-512 512-512 512 229.23 512 512zM96 448c0 229.75 186.25 416 416 416s416-186.25 416-416-186.25-416-416-416-416 186.25-416 416zM317.256 605.256l-90.512-90.512 285.256-285.254 285.254 285.256-90.508 90.508-194.746-194.744z" />
<glyph unicode="&#xea44;" glyph-name="circle-left" d="M512-64c282.77 0 512 229.23 512 512s-229.23 512-512 512-512-229.23-512-512 229.23-512 512-512zM512 864c229.75 0 416-186.25 416-416s-186.25-416-416-416-416 186.25-416 416 186.25 416 416 416zM669.256 642.744l-90.512 90.512-285.254-285.256 285.256-285.254 90.508 90.508-194.744 194.746z" />
<glyph unicode="&#xea82;" glyph-name="share2" d="M864 256c-45.16 0-85.92-18.738-115.012-48.83l-431.004 215.502c1.314 8.252 2.016 16.706 2.016 25.328s-0.702 17.076-2.016 25.326l431.004 215.502c29.092-30.090 69.852-48.828 115.012-48.828 88.366 0 160 71.634 160 160s-71.634 160-160 160-160-71.634-160-160c0-8.622 0.704-17.076 2.016-25.326l-431.004-215.504c-29.092 30.090-69.852 48.83-115.012 48.83-88.366 0-160-71.636-160-160 0-88.368 71.634-160 160-160 45.16 0 85.92 18.738 115.012 48.828l431.004-215.502c-1.312-8.25-2.016-16.704-2.016-25.326 0-88.368 71.634-160 160-160s160 71.632 160 160c0 88.364-71.634 160-160 160z" />
</font>
</defs>
</svg>
